<svg width="16" height="16" viewBox="0 0 16 16" fill="none" xmlns="http://www.w3.org/2000/svg">
<path d="M15.9507 10.3598C15.8453 10.1027 15.5972 9.94733 15.3348 9.947C15.3335 9.947 15.3321 9.94666 15.3308 9.94666C15.3265 9.94666 15.3228 9.94833 15.3184 9.94866C15.2671 9.95 15.2157 9.95833 15.1647 9.97201C15.1457 9.97701 15.1277 9.98201 15.1094 9.98835C15.1 9.99168 15.0904 9.99302 15.0807 9.99668C14.244 10.3405 13.3553 10.5149 12.4386 10.5149C8.60479 10.5149 5.48555 7.39568 5.48555 3.56187C5.48555 2.64518 5.65962 1.7565 6.00376 0.919846C6.00876 0.908175 6.01043 0.895837 6.01443 0.883833C6.01943 0.86916 6.02376 0.854488 6.02777 0.839149C6.04277 0.784127 6.05211 0.728773 6.05278 0.673418C6.05278 0.671084 6.05378 0.668749 6.05378 0.666082C6.05378 0.665415 6.05344 0.664414 6.05344 0.663748C6.05344 0.623732 6.04877 0.584384 6.04144 0.545702C6.03977 0.537365 6.03844 0.529029 6.03677 0.520692C6.0281 0.482344 6.0171 0.44433 6.00176 0.408316C5.99575 0.39431 5.98742 0.382306 5.98075 0.368967C5.91105 0.229913 5.79567 0.112868 5.64028 0.049177C5.45854 -0.0251851 5.26413 -0.0118466 5.10006 0.066517C5.0984 0.0671839 5.0964 0.0675174 5.09473 0.0685178C4.098 0.478343 3.19831 1.07991 2.42067 1.85754C-0.806945 5.08912 -0.806945 10.3472 2.421 13.5794C4.03698 15.1934 6.15915 16 8.28166 16C10.4042 16 12.5267 15.193 14.143 13.5791C14.918 12.8038 15.5185 11.9071 15.9284 10.9137C15.9304 10.91 15.931 10.9057 15.9327 10.9017C15.9517 10.862 15.967 10.8207 15.978 10.7777C15.9787 10.7743 15.98 10.7713 15.981 10.768C16.0127 10.6366 16.0061 10.4945 15.9507 10.3598ZM13.2006 12.636C10.4885 15.3441 6.07612 15.3441 3.36471 12.636C0.656302 9.92432 0.656302 5.51195 3.36438 2.80057C3.65382 2.51113 3.96662 2.25603 4.29441 2.02627C4.20037 2.52913 4.15169 3.04167 4.15169 3.5622C4.15169 8.13163 7.86916 11.8491 12.4386 11.8491C12.9588 11.8491 13.4717 11.8004 13.9746 11.7063C13.7445 12.0338 13.4901 12.3466 13.2006 12.636Z" fill="#f3f4f5"/>
</svg>
