<svg width="18" height="17" viewBox="0 0 18 17" fill="none" xmlns="http://www.w3.org/2000/svg">
<g clip-path="url(#clip0_1650_14921)">
<path d="M4.75667 3.49126L3.69617 2.48968C3.40367 2.21308 2.92817 2.21308 2.63567 2.48968C2.3428 2.76628 2.3428 3.21466 2.63567 3.49126L3.69617 4.49285C3.84242 4.63133 4.03442 4.70039 4.22642 4.70039C4.41842 4.70039 4.61042 4.63133 4.75667 4.49285C5.04955 4.21624 5.04955 3.76787 4.75667 3.49126Z" fill="white"/>
<path d="M2.25 7.79175H0.75C0.336 7.79175 0 8.10908 0 8.50008C0 8.89108 0.336 9.20841 0.75 9.20841H2.25C2.664 9.20841 3 8.89108 3 8.50008C3 8.10908 2.664 7.79175 2.25 7.79175Z" fill="white"/>
<path d="M4.75667 12.507C4.46417 12.2304 3.98867 12.2304 3.69617 12.507L2.63567 13.5086C2.3428 13.7852 2.3428 14.2336 2.63567 14.5102C2.78192 14.6487 2.97392 14.7177 3.16592 14.7177C3.35792 14.7177 3.54992 14.6487 3.69617 14.5102L4.75667 13.5086C5.04955 13.232 5.04955 12.7836 4.75667 12.507Z" fill="white"/>
<path d="M9 14.1667C8.586 14.1667 8.25 14.4841 8.25 14.8751V16.2917C8.25 16.6827 8.586 17.0001 9 17.0001C9.414 17.0001 9.75 16.6827 9.75 16.2917V14.8751C9.75 14.4841 9.414 14.1667 9 14.1667Z" fill="white"/>
<path d="M15.3641 13.5086L14.3036 12.507C14.0111 12.2304 13.5356 12.2304 13.2431 12.507C12.9502 12.7836 12.9502 13.232 13.2431 13.5086L14.3036 14.5102C14.4498 14.6487 14.6418 14.7177 14.8338 14.7177C15.0258 14.7177 15.2178 14.6487 15.3641 14.5102C15.657 14.2336 15.657 13.7852 15.3641 13.5086Z" fill="white"/>
<path d="M17.25 7.79175H15.75C15.336 7.79175 15 8.10908 15 8.50008C15 8.89108 15.336 9.20841 15.75 9.20841H17.25C17.664 9.20841 18 8.89108 18 8.50008C18 8.10908 17.664 7.79175 17.25 7.79175Z" fill="white"/>
<path d="M15.3641 2.48968C15.0716 2.21308 14.5961 2.21308 14.3036 2.48968L13.2431 3.49126C12.9502 3.76787 12.9502 4.21624 13.2431 4.49285C13.3893 4.63133 13.5813 4.70039 13.7733 4.70039C13.9653 4.70039 14.1573 4.63133 14.3036 4.49285L15.3641 3.49126C15.657 3.21466 15.657 2.76628 15.3641 2.48968Z" fill="white"/>
<path d="M9 0C8.586 0 8.25 0.317333 8.25 0.708333V2.125C8.25 2.516 8.586 2.83333 9 2.83333C9.414 2.83333 9.75 2.516 9.75 2.125V0.708333C9.75 0.317333 9.414 0 9 0Z" fill="white"/>
<path d="M9 3.89575C6.312 3.89575 4.125 5.96125 4.125 8.49992C4.125 11.0386 6.312 13.1041 9 13.1041C11.688 13.1041 13.875 11.0386 13.875 8.49992C13.875 5.96125 11.688 3.89575 9 3.89575ZM9 11.6874C7.13925 11.6874 5.625 10.2573 5.625 8.49992C5.625 6.74254 7.13925 5.31242 9 5.31242C10.8608 5.31242 12.375 6.74254 12.375 8.49992C12.375 10.2573 10.8608 11.6874 9 11.6874Z" fill="white"/>
</g>
<defs>
<clipPath id="clip0_1650_14921">
<rect width="18" height="17" fill="white"/>
</clipPath>
</defs>
</svg>
